<?xml version="1.0" encoding="UTF-8" standalone="no"?>
<!-- Created with Inkscape (http://www.inkscape.org/) -->

<svg
   width="210mm"
   height="297mm"
   viewBox="0 0 210 297"
   version="1.1"
   id="svg1"
   xml:space="preserve"
   inkscape:version="1.4.2 (f4327f4, 2025-05-13)"
   sodipodi:docname="Front Panel - Inkscape.svg"
   xmlns:inkscape="http://www.inkscape.org/namespaces/inkscape"
   xmlns:sodipodi="http://sodipodi.sourceforge.net/DTD/sodipodi-0.dtd"
   xmlns="http://www.w3.org/2000/svg"
   xmlns:svg="http://www.w3.org/2000/svg"><sodipodi:namedview
     id="namedview1"
     pagecolor="#ffffff"
     bordercolor="#000000"
     borderopacity="0.25"
     inkscape:showpageshadow="2"
     inkscape:pageopacity="0.0"
     inkscape:pagecheckerboard="0"
     inkscape:deskcolor="#d1d1d1"
     inkscape:document-units="mm"
     showgrid="true"
     inkscape:zoom="1.6063169"
     inkscape:cx="409.32148"
     inkscape:cy="376.32675"
     inkscape:window-width="2880"
     inkscape:window-height="1514"
     inkscape:window-x="-11"
     inkscape:window-y="-11"
     inkscape:window-maximized="1"
     inkscape:current-layer="g23"><inkscape:grid
       id="grid1"
       units="mm"
       originx="0"
       originy="0"
       spacingx="0.5"
       spacingy="0.5"
       empcolor="#0099e5"
       empopacity="0.30196078"
       color="#0099e5"
       opacity="0.14901961"
       empspacing="5"
       enabled="true"
       visible="true" /></sodipodi:namedview><defs
     id="defs1"><marker
       id="DistanceX"
       orient="auto"
       refX="0.0"
       refY="0.0"
       style="overflow:visible"><path
         d="M 3,-3 L -3,3 M 0,-5 L  0,5"
         style="stroke:#000000; stroke-width:0.5"
         id="path1" /></marker><pattern
       id="Hatch"
       patternUnits="userSpaceOnUse"
       width="8"
       height="8"
       x="0"
       y="0"><path
         d="M8 4 l-4,4"
         stroke="#000000"
         stroke-width="0.25"
         linecap="square"
         id="path2" /><path
         d="M6 2 l-4,4"
         stroke="#000000"
         stroke-width="0.25"
         linecap="square"
         id="path3" /><path
         d="M4 0 l-4,4"
         stroke="#000000"
         stroke-width="0.25"
         linecap="square"
         id="path4" /></pattern><symbol
       id="*MODEL_SPACE" /><symbol
       id="*PAPER_SPACE" /><marker
       id="DistanceX-3"
       orient="auto"
       refX="0.0"
       refY="0.0"
       style="overflow:visible"><path
         d="M 3,-3 L -3,3 M 0,-5 L  0,5"
         style="stroke:#000000; stroke-width:0.5"
         id="path1-6" /></marker><pattern
       id="Hatch-1"
       patternUnits="userSpaceOnUse"
       width="8"
       height="8"
       x="0"
       y="0"><path
         d="M8 4 l-4,4"
         stroke="#000000"
         stroke-width="0.25"
         linecap="square"
         id="path2-5" /><path
         d="M6 2 l-4,4"
         stroke="#000000"
         stroke-width="0.25"
         linecap="square"
         id="path3-4" /><path
         d="M4 0 l-4,4"
         stroke="#000000"
         stroke-width="0.25"
         linecap="square"
         id="path4-2" /></pattern><symbol
       id="*MODEL_SPACE-0" /><symbol
       id="*PAPER_SPACE-9" /></defs><g
     inkscape:label="Layer 1"
     inkscape:groupmode="layer"
     id="layer1"><g
       inkscape:groupmode="layer"
       id="layer3"
       inkscape:label="2"><rect
         style="fill:#000000;fill-opacity:0.991525;stroke:#000000;stroke-width:0.456999;stroke-linecap:round;stroke-linejoin:round;stroke-miterlimit:4.6;stroke-dasharray:none;stroke-opacity:1"
         id="rect3"
         width="8.6782951"
         height="8.62006"
         x="91.962738"
         y="54.026657"
         rx="0.85338569"
         ry="0.76680398" /></g><g
       inkscape:label="0"
       id="g23"
       transform="matrix(0.26458333,0,0,0.26458333,90.663084,-140.72091)"><path
         d="m 33.028535,752.34369 a 11.716535,11.716535 0 0 0 -23.43307,0 11.716535,11.716535 0 0 0 23.43307,0 z"
         style="fill:none;stroke:#cd8282;stroke-opacity:1"
         id="path5" /><path
         d="m 95.773228,752.34369 a 14.173228,14.173228 0 0 0 -28.346456,0 14.173228,14.173228 0 0 0 28.346456,0 z"
         style="fill:none;stroke:#000000"
         id="path6" /><path
         d="m 95.965228,843.92768 a 14.173228,14.173228 0 0 0 -28.346456,0 14.173228,14.173228 0 0 0 28.346456,0 z"
         style="fill:none;stroke:#000000"
         id="path7" /><path
         d="m 33.028535,843.92768 a 11.716535,11.716535 0 0 0 -23.43307,0 11.716535,11.716535 0 0 0 23.43307,0 z"
         style="fill:none;stroke:#000000"
         id="path8" /><path
         d="m 33.028535,925.33568 a 11.716535,11.716535 0 0 0 -23.43307,0 11.716535,11.716535 0 0 0 23.43307,0 z"
         style="fill:none;stroke:#000000"
         id="path9" /><path
         d="m 95.773228,925.33568 a 14.173228,14.173228 0 0 0 -28.346456,0 14.173228,14.173228 0 0 0 28.346456,0 z"
         style="fill:none;stroke:#000000"
         id="path10" /><path
         d="m 33.028535,1006.7435 a 11.716535,11.716535 0 0 0 -23.43307,0 11.716535,11.716535 0 0 0 23.43307,0 z"
         style="fill:none;stroke:#000000"
         id="path11" /><path
         d="m 95.773228,1006.7437 a 14.173228,14.173228 0 0 0 -28.346456,0 14.173228,14.173228 0 0 0 28.346456,0 z"
         style="fill:none;stroke:#000000"
         id="path12" /><path
         d="m 33.028535,1088.1517 a 11.716535,11.716535 0 0 0 -23.43307,0 11.716535,11.716535 0 0 0 23.43307,0 z"
         style="fill:none;stroke:#000000"
         id="path13" /><path
         d="m 95.773228,1088.1517 a 14.173228,14.173228 0 0 0 -28.346456,0 14.173228,14.173228 0 0 0 28.346456,0 z"
         style="fill:none;stroke:#000000"
         id="path14" /><path
         d="M 110.87968,1165.6932 H -2.5061415 V 680.02394 H 110.87968 Z"
         style="fill:none;stroke:#000000"
         id="path15" /><path
         d="m 25.989921,697.40976 h 11.338583 a 6.047244,6.047244 0 0 0 0,-12.09448 H 25.989921 a 6.047244,6.047244 0 0 0 0,12.09448 z"
         style="fill:none;stroke:#000000"
         id="path16" /><path
         d="m 83.554613,685.24538 a 6.0472478,6.0472478 0 1 0 0.07053,12.09429 l 11.69443,-0.0682 a 6.0472478,6.0472478 0 0 0 -0.07053,-12.09429 z"
         style="fill:none;stroke:#000000"
         id="path17" /><path
         d="m 37.328504,1160.4019 a 6.04725,6.04725 0 0 0 0,-12.0945 H 25.989921 a 6.04725,6.04725 0 0 0 0,12.0945 z"
         style="fill:none;stroke:#000000"
         id="path18" /><path
         d="m 83.625144,697.33967 11.69443,-0.0682 a 6.0472478,6.0472478 0 0 0 -0.07053,-12.09429 l -11.69443,0.0682 a 6.0472478,6.0472478 0 1 0 0.07053,12.09429 z"
         style="fill:none;stroke:#000000"
         id="path19" /><path
         d="m 37.328504,697.40976 a 6.047244,6.047244 0 0 0 0,-12.09448 H 25.989921 a 6.047244,6.047244 0 0 0 0,12.09448 z"
         style="fill:none;stroke:#000000"
         id="path20" /><path
         d="m 83.609658,1160.4018 11.684144,-0.06 a 6.0472801,6.0472801 0 0 0 -0.06226,-12.0944 l -11.684144,0.06 a 6.0472441,6.0472441 0 0 0 0.06226,12.0943 z"
         style="fill:none;stroke:#000000"
         id="path21" /><path
         d="m 83.536251,1148.3649 a 6.0472728,6.0472728 0 0 0 0.05936,12.0944 l 11.702599,-0.057 a 6.0472443,6.0472443 0 0 0 -0.05936,-12.0943 z"
         style="fill:none;stroke:#000000"
         id="path22" /><path
         d="m 27.359244,795.92768 a 6.047244,6.047244 0 0 0 -12.094488,0 6.047244,6.047244 0 0 0 12.094488,0 z"
         style="fill:none;stroke:#000000"
         id="path23" /><rect
         style="fill:#000000;fill-opacity:0;stroke:#000000;stroke-width:1.95533;stroke-linecap:round;stroke-linejoin:round;stroke-miterlimit:4.6;stroke-dasharray:none;stroke-opacity:1"
         id="rect2"
         width="107.04266"
         height="69.281204"
         x="0.66543746"
         y="815.49268"
         rx="6.1274052"
         ry="6.3605328" /><rect
         style="fill:#000000;fill-opacity:0;stroke:#000000;stroke-width:2.11208;stroke-linecap:round;stroke-linejoin:round;stroke-miterlimit:4.6;stroke-dasharray:none;stroke-opacity:1"
         id="rect2-4"
         width="106.88592"
         height="80.952759"
         x="0.74381042"
         y="726.68726"
         rx="6.1184325"
         ry="7.4320688" /><rect
         style="fill:#000000;fill-opacity:0;stroke:#000000;stroke-width:1.95533;stroke-linecap:round;stroke-linejoin:round;stroke-miterlimit:4.6;stroke-dasharray:none;stroke-opacity:1"
         id="rect2-5"
         width="107.04266"
         height="69.281204"
         x="0.66543746"
         y="896.62671"
         rx="6.1274052"
         ry="6.3605328" /><rect
         style="fill:#000000;fill-opacity:0;stroke:#000000;stroke-width:1.95533;stroke-linecap:round;stroke-linejoin:round;stroke-miterlimit:4.6;stroke-dasharray:none;stroke-opacity:1"
         id="rect2-5-6"
         width="107.04266"
         height="69.281204"
         x="0.66543746"
         y="978.01184"
         rx="6.1274052"
         ry="6.3605328" /><rect
         style="fill:#000000;fill-opacity:0;stroke:#000000;stroke-width:1.95533;stroke-linecap:round;stroke-linejoin:round;stroke-miterlimit:4.6;stroke-dasharray:none;stroke-opacity:1"
         id="rect2-5-8"
         width="107.04266"
         height="69.281204"
         x="0.66543746"
         y="1059.4325"
         rx="6.1274052"
         ry="6.3605328" /></g><text
       xml:space="preserve"
       style="font-size:6.35px;font-family:'Death Star';-inkscape-font-specification:'Death Star';text-align:center;writing-mode:lr-tb;direction:ltr;text-anchor:middle;fill:#000000;stroke:#7fcf68;stroke-width:0;stroke-linecap:round;stroke-linejoin:round;stroke-miterlimit:4.6;stroke-dasharray:none"
       x="104.84065"
       y="49.578999"
       id="text1"><tspan
         sodipodi:role="line"
         id="tspan1"
         style="stroke-width:0;stroke-dasharray:none"
         x="104.84065"
         y="49.578999">MIXER</tspan></text><text
       xml:space="preserve"
       style="font-size:3.52778px;font-family:'Death Star';-inkscape-font-specification:'Death Star';text-align:center;writing-mode:lr-tb;direction:ltr;text-anchor:middle;fill:#000000;stroke:#7fcf68;stroke-width:0;stroke-linecap:round;stroke-linejoin:round;stroke-miterlimit:4.6;stroke-dasharray:none"
       x="96.536697"
       y="66.891548"
       id="text2"><tspan
         sodipodi:role="line"
         id="tspan2"
         style="font-style:normal;font-variant:normal;font-weight:normal;font-stretch:normal;font-size:3.52778px;font-family:'Space Madness';-inkscape-font-specification:'Space Madness';stroke-width:0"
         x="96.536697"
         y="66.891548">out</tspan></text><text
       xml:space="preserve"
       style="font-size:3.52778px;font-family:'Death Star';-inkscape-font-specification:'Death Star';text-align:center;writing-mode:lr-tb;direction:ltr;text-anchor:middle;fill:#000000;stroke:#7fcf68;stroke-width:0;stroke-linecap:round;stroke-linejoin:round;stroke-miterlimit:4.6;stroke-dasharray:none"
       x="112.30389"
       y="91.505981"
       id="text2-5"><tspan
         sodipodi:role="line"
         id="tspan2-4"
         style="font-style:normal;font-variant:normal;font-weight:normal;font-stretch:normal;font-size:3.52778px;font-family:'Space Madness';-inkscape-font-specification:'Space Madness';stroke-width:0"
         x="112.30389"
         y="91.505981">vol</tspan></text><text
       xml:space="preserve"
       style="font-size:3.52778px;font-family:'Death Star';-inkscape-font-specification:'Death Star';text-align:center;writing-mode:lr-tb;direction:ltr;text-anchor:middle;fill:#000000;stroke:#7fcf68;stroke-width:0;stroke-linecap:round;stroke-linejoin:round;stroke-miterlimit:4.6;stroke-dasharray:none"
       x="96.301888"
       y="91.505981"
       id="text2-1"><tspan
         sodipodi:role="line"
         id="tspan2-46"
         style="font-style:normal;font-variant:normal;font-weight:normal;font-stretch:normal;font-size:3.52778px;font-family:'Space Madness';-inkscape-font-specification:'Space Madness';stroke-width:0"
         x="96.301888"
         y="91.505981">in</tspan></text><text
       xml:space="preserve"
       style="font-size:3.52778px;font-family:'Death Star';-inkscape-font-specification:'Death Star';text-align:center;writing-mode:lr-tb;direction:ltr;text-anchor:middle;fill:#000000;stroke:#7fcf68;stroke-width:0;stroke-linecap:round;stroke-linejoin:round;stroke-miterlimit:4.6;stroke-dasharray:none"
       x="112.25308"
       y="112.96371"
       id="text2-5-7"><tspan
         sodipodi:role="line"
         id="tspan2-4-7"
         style="font-style:normal;font-variant:normal;font-weight:normal;font-stretch:normal;font-size:3.52778px;font-family:'Space Madness';-inkscape-font-specification:'Space Madness';stroke-width:0"
         x="112.25308"
         y="112.96371">vol</tspan></text><text
       xml:space="preserve"
       style="font-size:3.52778px;font-family:'Death Star';-inkscape-font-specification:'Death Star';text-align:center;writing-mode:lr-tb;direction:ltr;text-anchor:middle;fill:#000000;stroke:#7fcf68;stroke-width:0;stroke-linecap:round;stroke-linejoin:round;stroke-miterlimit:4.6;stroke-dasharray:none"
       x="96.301888"
       y="112.96371"
       id="text2-1-7"><tspan
         sodipodi:role="line"
         id="tspan2-46-3"
         style="font-style:normal;font-variant:normal;font-weight:normal;font-stretch:normal;font-size:3.52778px;font-family:'Space Madness';-inkscape-font-specification:'Space Madness';stroke-width:0"
         x="96.301888"
         y="112.96371">in</tspan></text><text
       xml:space="preserve"
       style="font-size:3.52778px;font-family:'Death Star';-inkscape-font-specification:'Death Star';text-align:center;writing-mode:lr-tb;direction:ltr;text-anchor:middle;fill:#000000;stroke:#7fcf68;stroke-width:0;stroke-linecap:round;stroke-linejoin:round;stroke-miterlimit:4.6;stroke-dasharray:none"
       x="112.25308"
       y="134.50284"
       id="text2-5-7-8"><tspan
         sodipodi:role="line"
         id="tspan2-4-7-1"
         style="font-style:normal;font-variant:normal;font-weight:normal;font-stretch:normal;font-size:3.52778px;font-family:'Space Madness';-inkscape-font-specification:'Space Madness';stroke-width:0"
         x="112.25308"
         y="134.50284">vol</tspan></text><text
       xml:space="preserve"
       style="font-size:3.52778px;font-family:'Death Star';-inkscape-font-specification:'Death Star';text-align:center;writing-mode:lr-tb;direction:ltr;text-anchor:middle;fill:#000000;stroke:#7fcf68;stroke-width:0;stroke-linecap:round;stroke-linejoin:round;stroke-miterlimit:4.6;stroke-dasharray:none"
       x="96.301888"
       y="134.50284"
       id="text2-1-7-8"><tspan
         sodipodi:role="line"
         id="tspan2-46-3-2"
         style="font-style:normal;font-variant:normal;font-weight:normal;font-stretch:normal;font-size:3.52778px;font-family:'Space Madness';-inkscape-font-specification:'Space Madness';stroke-width:0"
         x="96.301888"
         y="134.50284">in</tspan></text><text
       xml:space="preserve"
       style="font-size:3.52778px;font-family:'Death Star';-inkscape-font-specification:'Death Star';text-align:center;writing-mode:lr-tb;direction:ltr;text-anchor:middle;fill:#000000;stroke:#7fcf68;stroke-width:0;stroke-linecap:round;stroke-linejoin:round;stroke-miterlimit:4.6;stroke-dasharray:none"
       x="112.25308"
       y="156.04323"
       id="text2-5-7-80"><tspan
         sodipodi:role="line"
         id="tspan2-4-7-12"
         style="font-style:normal;font-variant:normal;font-weight:normal;font-stretch:normal;font-size:3.52778px;font-family:'Space Madness';-inkscape-font-specification:'Space Madness';stroke-width:0"
         x="112.25308"
         y="156.04323">vol</tspan></text><text
       xml:space="preserve"
       style="font-size:3.52778px;font-family:'Death Star';-inkscape-font-specification:'Death Star';text-align:center;writing-mode:lr-tb;direction:ltr;text-anchor:middle;fill:#000000;stroke:#7fcf68;stroke-width:0;stroke-linecap:round;stroke-linejoin:round;stroke-miterlimit:4.6;stroke-dasharray:none"
       x="96.301888"
       y="156.04323"
       id="text2-1-7-5"><tspan
         sodipodi:role="line"
         id="tspan2-46-3-0"
         style="font-style:normal;font-variant:normal;font-weight:normal;font-stretch:normal;font-size:3.52778px;font-family:'Space Madness';-inkscape-font-specification:'Space Madness';stroke-width:0"
         x="96.301888"
         y="156.04323">in</tspan></text><text
       xml:space="preserve"
       style="font-size:3.52778px;font-family:'Death Star';-inkscape-font-specification:'Death Star';text-align:center;writing-mode:lr-tb;direction:ltr;text-anchor:middle;fill:#000000;stroke:#7fcf68;stroke-width:0;stroke-linecap:round;stroke-linejoin:round;stroke-miterlimit:4.6;stroke-dasharray:none"
       x="112.3291"
       y="66.864349"
       id="text2-6"><tspan
         sodipodi:role="line"
         id="tspan2-0"
         style="font-style:normal;font-variant:normal;font-weight:normal;font-stretch:normal;font-size:3.52778px;font-family:'Space Madness';-inkscape-font-specification:'Space Madness';stroke-width:0"
         x="112.3291"
         y="66.864349">vol</tspan></text></g></svg>
